<?xml version="1.0" encoding="UTF-8"?>
<svg id="_Слой_1" data-name="Слой 1" xmlns="http://www.w3.org/2000/svg" viewBox="0 0 909.5 633">
  <defs>
    <style>
      .cls-1 {
        fill: #fff;
      }

      .cls-2 {
        fill: red;
      }
    </style>
  </defs>
  <polygon class="cls-2" points=".19 451.24 .19 514 23.6 514 23.6 561 77.5 561 77.5 589.51 126 589.51 126 614.17 226.34 614.17 226.34 633 674.29 633 674.29 619.65 723.6 619.65 723.6 602.78 796.5 602.78 796.5 590.23 837.5 590.23 837.5 564.31 883.5 564.31 883.5 516.94 909.5 516.94 909.5 125.13 897.31 125.13 897.31 84.03 876.96 84.03 876.96 39 856.48 39 856.48 17 798.53 17 798.53 0 186.62 0 186.62 13 108.47 13 108.47 25 70.2 25 70.2 44 35.5 44 35.5 57 12.5 57 12.5 84 0 84 .19 451.24"/>
  <polygon class="cls-1" points="376.09 172.56 376.09 446.56 402.42 446.56 402.42 431.35 434 431.35 434 419.54 467 419.54 467 401.73 487 401.73 487 390.77 500 390.77 500 375.02 530 375.02 530 366.12 554 366.12 554 341.1 581 341.1 581 324.69 613.38 324.69 613.38 316.5 622.14 307.75 613.38 307.75 613.38 293.51 596 293.51 596 278 567.35 278 557.93 268.57 533.36 268.57 533.36 252 511.86 252 511.86 230 480.52 230 480.52 211 443.45 211 443.45 194 405.03 194 405.03 172.56 376.09 172.56"/>
</svg>